<svg width="28" height="28" viewBox="0 0 28 28" fill="none" xmlns="http://www.w3.org/2000/svg">
<circle cx="14" cy="14" r="14" fill="#759B37"/>
<g clip-path="url(#clip0_875_380)">
<path d="M19.17 16.2451L17.2984 16.0314C16.849 15.9798 16.4069 16.1345 16.09 16.4514L14.7342 17.8072C12.649 16.7461 10.9395 15.044 9.87844 12.9514L11.2416 11.5882C11.5584 11.2714 11.7132 10.8293 11.6616 10.3798L11.4479 8.52296C11.3595 7.77875 10.7332 7.21875 9.9816 7.21875H8.70686C7.87423 7.21875 7.1816 7.91138 7.23318 8.74401C7.6237 15.0366 12.6563 20.0619 18.9416 20.4524C19.7742 20.504 20.4669 19.8114 20.4669 18.9788V17.704C20.4742 16.9598 19.9142 16.3335 19.17 16.2451Z" fill="white"/>
</g>
<defs>
<clipPath id="clip0_875_380">
<rect width="17.6842" height="17.6842" fill="white" transform="translate(5 5)"/>
</clipPath>
</defs>
</svg>
