<svg width="85" height="63" viewBox="0 0 85 63" fill="none" xmlns="http://www.w3.org/2000/svg">
<rect width="85" height="63" fill="url(#paint0_linear_6830_3775)"/>
<path d="M33.5 24.2493H33.6065C33.7702 24.8925 34.1435 25.4628 34.6675 25.8701C35.1915 26.2775 35.8363 26.4986 36.5 26.4986C37.1637 26.4986 37.8085 26.2775 38.3325 25.8701C38.8565 25.4628 39.2298 24.8925 39.3935 24.2493H54.5C54.6989 24.2493 54.8897 24.1703 55.0303 24.0296C55.171 23.889 55.25 23.6982 55.25 23.4993C55.25 23.3004 55.171 23.1096 55.0303 22.969C54.8897 22.8283 54.6989 22.7493 54.5 22.7493H39.3935C39.2298 22.1061 38.8565 21.5358 38.3325 21.1285C37.8085 20.7211 37.1637 20.5 36.5 20.5C35.8363 20.5 35.1915 20.7211 34.6675 21.1285C34.1435 21.5358 33.7702 22.1061 33.6065 22.7493H33.5C33.3011 22.7493 33.1103 22.8283 32.9697 22.969C32.829 23.1096 32.75 23.3004 32.75 23.4993C32.75 23.6982 32.829 23.889 32.9697 24.0296C33.1103 24.1703 33.3011 24.2493 33.5 24.2493ZM36.5 21.9993C36.7967 21.9993 37.0867 22.0873 37.3334 22.2521C37.58 22.4169 37.7723 22.6512 37.8858 22.9253C37.9994 23.1994 38.0291 23.501 37.9712 23.7919C37.9133 24.0829 37.7704 24.3502 37.5607 24.56C37.3509 24.7697 37.0836 24.9126 36.7926 24.9705C36.5017 25.0284 36.2001 24.9986 35.926 24.8851C35.6519 24.7716 35.4176 24.5793 35.2528 24.3327C35.088 24.086 35 23.796 35 23.4993C35 23.1015 35.158 22.7199 35.4393 22.4386C35.7206 22.1573 36.1022 21.9993 36.5 21.9993ZM54.5 30.2493H54.3935C54.2298 29.6061 53.8565 29.0358 53.3325 28.6285C52.8085 28.2211 52.1637 28 51.5 28C50.8363 28 50.1915 28.2211 49.6675 28.6285C49.1435 29.0358 48.7702 29.6061 48.6065 30.2493H33.5C33.3011 30.2493 33.1103 30.3283 32.9697 30.469C32.829 30.6096 32.75 30.8004 32.75 30.9993C32.75 31.1982 32.829 31.389 32.9697 31.5296C33.1103 31.6703 33.3011 31.7493 33.5 31.7493H48.6065C48.7702 32.3925 49.1435 32.9628 49.6675 33.3701C50.1915 33.7775 50.8363 33.9986 51.5 33.9986C52.1637 33.9986 52.8085 33.7775 53.3325 33.3701C53.8565 32.9628 54.2298 32.3925 54.3935 31.7493H54.5C54.6989 31.7493 54.8897 31.6703 55.0303 31.5296C55.171 31.389 55.25 31.1982 55.25 30.9993C55.25 30.8004 55.171 30.6096 55.0303 30.469C54.8897 30.3283 54.6989 30.2493 54.5 30.2493ZM51.5 32.4993C51.2033 32.4993 50.9133 32.4113 50.6666 32.2465C50.42 32.0817 50.2277 31.8474 50.1142 31.5733C50.0006 31.2992 49.9709 30.9976 50.0288 30.7067C50.0867 30.4157 50.2296 30.1484 50.4393 29.9386C50.6491 29.7289 50.9164 29.586 51.2074 29.5281C51.4983 29.4702 51.7999 29.4999 52.074 29.6135C52.3481 29.727 52.5824 29.9193 52.7472 30.1659C52.912 30.4126 53 30.7026 53 30.9993C53 31.3971 52.842 31.7787 52.5607 32.06C52.2794 32.3413 51.8978 32.4993 51.5 32.4993ZM54.5 37.7493H46.8935C46.7298 37.1061 46.3565 36.5358 45.8325 36.1285C45.3085 35.7211 44.6637 35.5 44 35.5C43.3363 35.5 42.6915 35.7211 42.1675 36.1285C41.6435 36.5358 41.2702 37.1061 41.1065 37.7493H33.5C33.3011 37.7493 33.1103 37.8283 32.9697 37.969C32.829 38.1096 32.75 38.3004 32.75 38.4993C32.75 38.6982 32.829 38.889 32.9697 39.0296C33.1103 39.1703 33.3011 39.2493 33.5 39.2493H41.1065C41.2702 39.8925 41.6435 40.4628 42.1675 40.8701C42.6915 41.2775 43.3363 41.4986 44 41.4986C44.6637 41.4986 45.3085 41.2775 45.8325 40.8701C46.3565 40.4628 46.7298 39.8925 46.8935 39.2493H54.5C54.6989 39.2493 54.8897 39.1703 55.0303 39.0296C55.171 38.889 55.25 38.6982 55.25 38.4993C55.25 38.3004 55.171 38.1096 55.0303 37.969C54.8897 37.8283 54.6989 37.7493 54.5 37.7493ZM44 39.9993C43.7033 39.9993 43.4133 39.9113 43.1666 39.7465C42.92 39.5817 42.7277 39.3474 42.6142 39.0733C42.5006 38.7992 42.4709 38.4976 42.5288 38.2067C42.5867 37.9157 42.7296 37.6484 42.9393 37.4386C43.1491 37.2289 43.4164 37.086 43.7074 37.0281C43.9983 36.9702 44.2999 36.9999 44.574 37.1135C44.8481 37.227 45.0824 37.4193 45.2472 37.6659C45.412 37.9126 45.5 38.2026 45.5 38.4993C45.5 38.8971 45.342 39.2787 45.0607 39.56C44.7794 39.8413 44.3978 39.9993 44 39.9993Z" fill="white"/>
<defs>
<linearGradient id="paint0_linear_6830_3775" x1="42.5" y1="0" x2="42.5" y2="63" gradientUnits="userSpaceOnUse">
<stop offset="0.313296" stop-color="#0C0125"/>
<stop offset="0.648131" stop-color="#1F0015"/>
<stop offset="1" stop-color="#320003"/>
</linearGradient>
</defs>
</svg>
