<svg width="24" height="23" viewBox="0 0 24 23" fill="none" xmlns="http://www.w3.org/2000/svg">
<g id="instagram" clip-path="url(#clip0_875_443)">
<path id="Path 16" d="M6.56126 22.7089C5.70434 22.6993 4.85548 22.5421 4.05194 22.2443C3.46516 22.0274 2.93427 21.6821 2.49808 21.2336C2.04843 20.7983 1.70262 20.2673 1.48636 19.68C1.18874 18.8765 1.0318 18.0277 1.02242 17.1709C0.956609 15.7465 0.943359 15.3193 0.943359 11.71C0.943359 8.10082 0.957912 7.67511 1.02177 6.24962C1.03229 5.39315 1.18942 4.54481 1.48636 3.74139C1.70368 3.15451 2.04899 2.62341 2.49721 2.18667C2.93286 1.73741 3.464 1.39193 4.05128 1.17581C4.85482 0.877949 5.70369 0.720785 6.5606 0.711222C7.98544 0.646062 8.41333 0.632812 12.0206 0.632812C15.6279 0.632812 16.0555 0.647365 17.481 0.711222C18.3377 0.721665 19.1863 0.878802 19.9899 1.17581C20.5769 1.39222 21.1079 1.73758 21.5438 2.18645C21.9928 2.62242 22.3383 3.15356 22.5548 3.74074C22.8528 4.54426 23.01 5.39313 23.0196 6.25006C23.0848 7.67555 23.098 8.10234 23.098 11.7105C23.098 15.3186 23.0848 15.7454 23.0196 17.1709C23.0093 18.0277 22.8521 18.8764 22.5548 19.68C22.33 20.2628 21.9856 20.792 21.5438 21.2337C21.1021 21.6753 20.5728 22.0196 19.9899 22.2443C19.1864 22.5422 18.3375 22.6995 17.4806 22.7091C16.0564 22.7743 15.6283 22.7875 12.0202 22.7875C8.41202 22.7875 7.98522 22.7749 6.56104 22.7091" fill="url(#paint0_radial_875_443)"/>
<path id="Path 17" d="M6.56126 22.7089C5.70434 22.6993 4.85548 22.5421 4.05194 22.2443C3.46516 22.0274 2.93427 21.6821 2.49808 21.2336C2.04843 20.7983 1.70262 20.2673 1.48636 19.68C1.18874 18.8765 1.0318 18.0277 1.02242 17.1709C0.956609 15.7465 0.943359 15.3193 0.943359 11.71C0.943359 8.10082 0.957912 7.67511 1.02177 6.24962C1.03229 5.39315 1.18942 4.54481 1.48636 3.74139C1.70368 3.15451 2.04899 2.62341 2.49721 2.18667C2.93286 1.73741 3.464 1.39193 4.05128 1.17581C4.85482 0.877949 5.70369 0.720785 6.5606 0.711222C7.98544 0.646062 8.41333 0.632812 12.0206 0.632812C15.6279 0.632812 16.0555 0.647365 17.481 0.711222C18.3377 0.721665 19.1863 0.878802 19.9899 1.17581C20.5769 1.39222 21.1079 1.73758 21.5438 2.18645C21.9928 2.62242 22.3383 3.15356 22.5548 3.74074C22.8528 4.54426 23.01 5.39313 23.0196 6.25006C23.0848 7.67555 23.098 8.10234 23.098 11.7105C23.098 15.3186 23.0848 15.7454 23.0196 17.1709C23.0093 18.0277 22.8521 18.8764 22.5548 19.68C22.33 20.2628 21.9856 20.792 21.5438 21.2337C21.1021 21.6753 20.5728 22.0196 19.9899 22.2443C19.1864 22.5422 18.3375 22.6995 17.4806 22.7091C16.0564 22.7743 15.6283 22.7875 12.0202 22.7875C8.41202 22.7875 7.98522 22.7749 6.56104 22.7091" fill="url(#paint1_radial_875_443)"/>
<path id="Path 18" d="M9.29986 11.7534C9.2999 11.2108 9.46085 10.6804 9.76235 10.2292C10.0639 9.77808 10.4924 9.42647 10.9937 9.21887C11.495 9.01127 12.0467 8.957 12.5788 9.06292C13.111 9.16883 13.5998 9.43018 13.9835 9.81391C14.3671 10.1976 14.6283 10.6865 14.7341 11.2187C14.8399 11.7509 14.7855 12.3026 14.5778 12.8038C14.3701 13.3051 14.0184 13.7335 13.5672 14.0349C13.116 14.3363 12.5855 14.4972 12.0429 14.4971C11.3153 14.497 10.6176 14.2078 10.1032 13.6933C9.58876 13.1788 9.2998 12.481 9.29986 11.7534ZM7.8166 11.7534C7.8166 12.5893 8.06446 13.4064 8.52885 14.1014C8.99324 14.7964 9.6533 15.3381 10.4256 15.658C11.1978 15.9779 12.0476 16.0615 12.8674 15.8985C13.6872 15.7354 14.4403 15.3329 15.0313 14.7418C15.6224 14.1508 16.0249 13.3977 16.188 12.5779C16.351 11.7581 16.2673 10.9083 15.9475 10.1361C15.6276 9.3638 15.0859 8.70374 14.3909 8.23935C13.6959 7.77496 12.8788 7.52709 12.0429 7.52709C11.4879 7.52707 10.9383 7.63637 10.4255 7.84875C9.91275 8.06113 9.44684 8.37243 9.05438 8.76488C8.66193 9.15734 8.35063 9.62325 8.13825 10.136C7.92587 10.6488 7.81657 11.1984 7.8166 11.7534ZM15.4488 7.35963C15.4487 7.55497 15.5066 7.74594 15.615 7.9084C15.7235 8.07086 15.8776 8.19751 16.0581 8.27234C16.2385 8.34717 16.4371 8.36681 16.6287 8.32879C16.8203 8.29077 16.9963 8.19678 17.1345 8.05872C17.2726 7.92066 17.3668 7.74473 17.405 7.55317C17.4432 7.36161 17.4237 7.16302 17.349 6.98253C17.2744 6.80203 17.1478 6.64774 16.9855 6.53915C16.8231 6.43055 16.6322 6.37255 16.4369 6.37246C16.175 6.37258 15.924 6.4766 15.7388 6.6617C15.5536 6.84679 15.4495 7.09781 15.4492 7.35963M8.7182 18.4529C8.19629 18.4472 7.67926 18.3517 7.18975 18.1706C6.83475 18.0338 6.51234 17.8241 6.24326 17.5551C5.97418 17.2862 5.76441 16.9639 5.62743 16.6089C5.44623 16.1194 5.35072 15.6024 5.34507 15.0805C5.3051 14.213 5.29728 13.9523 5.29728 11.7545C5.29728 9.55662 5.30597 9.29663 5.34507 8.42826C5.3514 7.90642 5.44689 7.38949 5.62743 6.89982C5.76425 6.54471 5.97396 6.22222 6.24306 5.95313C6.51215 5.68403 6.83464 5.47432 7.18975 5.3375C7.67924 5.15631 8.19628 5.06079 8.7182 5.05514C9.58569 5.01517 9.84633 5.00735 12.0433 5.00735C14.2403 5.00735 14.5012 5.01583 15.3695 5.05536C15.8914 5.06169 16.4083 5.15718 16.898 5.33771C17.2531 5.47455 17.5756 5.68427 17.8447 5.95336C18.1137 6.22245 18.3235 6.54494 18.4603 6.90004C18.6415 7.38953 18.737 7.90657 18.7427 8.42848C18.7826 9.29729 18.7904 9.55662 18.7904 11.7547C18.7904 13.9528 18.7824 14.2125 18.7427 15.0809C18.7366 15.6028 18.6411 16.1197 18.4603 16.6093C18.3233 16.9643 18.1135 17.2866 17.8445 17.5556C17.5754 17.8245 17.253 18.0342 16.898 18.171C16.4085 18.3522 15.8914 18.4477 15.3695 18.4534C14.502 18.4933 14.2414 18.5012 12.0433 18.5012C9.84525 18.5012 9.58548 18.4931 8.7182 18.4534M8.65 3.57318C7.96708 3.5866 7.2914 3.71586 6.65175 3.95545C6.10494 4.16686 5.60836 4.49021 5.19381 4.90475C4.77927 5.31929 4.45593 5.81588 4.24451 6.36268C4.00496 7.00234 3.8757 7.67802 3.86224 8.36093C3.82162 9.23842 3.8125 9.51904 3.8125 11.7543C3.8125 13.9895 3.82184 14.2699 3.86224 15.1476C3.8757 15.8305 4.00495 16.5062 4.24451 17.1458C4.45594 17.6926 4.77929 18.1892 5.19383 18.6037C5.60837 19.0183 6.10495 19.3416 6.65175 19.5531C7.29143 19.7925 7.96709 19.9218 8.65 19.9353C9.52792 19.9753 9.80811 19.9851 12.0433 19.9851C14.2785 19.9851 14.5589 19.9757 15.4366 19.9353C16.1196 19.9219 16.7952 19.7926 17.4349 19.5531C17.9817 19.3416 18.4783 19.0183 18.8928 18.6037C19.3074 18.1892 19.6307 17.6926 19.8421 17.1458C20.082 16.5063 20.2113 15.8305 20.2244 15.1476C20.2644 14.2694 20.2735 13.9895 20.2735 11.7543C20.2735 9.51904 20.2642 9.23864 20.2244 8.36093C20.211 7.67802 20.0817 7.00233 19.8421 6.36268C19.6307 5.81599 19.3074 5.31947 18.893 4.90494C18.4786 4.49042 17.9822 4.16701 17.4355 3.95545C16.7959 3.71571 16.1202 3.58644 15.4373 3.57318C14.5596 3.533 14.2792 3.52344 12.0444 3.52344C9.80963 3.52344 9.52857 3.53278 8.65043 3.57318" fill="white"/>
</g>
<defs>
<radialGradient id="paint0_radial_875_443" cx="0" cy="0" r="1" gradientUnits="userSpaceOnUse" gradientTransform="translate(2.3771 22.3021) scale(28.1279)">
<stop offset="0.09" stop-color="#FA8F21"/>
<stop offset="0.78" stop-color="#D82D7E"/>
</radialGradient>
<radialGradient id="paint1_radial_875_443" cx="0" cy="0" r="1" gradientUnits="userSpaceOnUse" gradientTransform="translate(16.289 21.5905) scale(24.7528)">
<stop offset="0.64" stop-color="#8C3AAA" stop-opacity="0"/>
<stop offset="1" stop-color="#8C3AAA"/>
</radialGradient>
<clipPath id="clip0_875_443">
<rect width="22.1545" height="22.1545" fill="white" transform="translate(0.943359 0.632812)"/>
</clipPath>
</defs>
</svg>
