<svg width="28" height="28" viewBox="0 0 28 28" fill="none" xmlns="http://www.w3.org/2000/svg">
<circle cx="14" cy="14" r="14" fill="#759B37"/>
<g clip-path="url(#clip0_875_390)">
<path d="M19.5095 8.70312H8.70244C7.95946 8.70312 7.35156 9.31102 7.35156 10.054V18.1593C7.35156 18.9022 7.95946 19.5101 8.70244 19.5101H19.5095C20.2524 19.5101 20.8603 18.9022 20.8603 18.1593V10.054C20.8603 9.31102 20.2524 8.70312 19.5095 8.70312ZM19.2393 11.5737L14.8219 14.3363C14.3829 14.6132 13.829 14.6132 13.39 14.3363L8.97262 11.5737C8.80376 11.4657 8.70244 11.2833 8.70244 11.0874C8.70244 10.6349 9.19551 10.3647 9.58051 10.6011L14.1059 13.4312L18.6314 10.6011C19.0164 10.3647 19.5095 10.6349 19.5095 11.0874C19.5095 11.2833 19.4081 11.4657 19.2393 11.5737Z" fill="white"/>
</g>
<defs>
<clipPath id="clip0_875_390">
<rect width="16.2105" height="16.2105" fill="white" transform="translate(6 6)"/>
</clipPath>
</defs>
</svg>
