<svg width="116" height="111" viewBox="0 0 116 111" fill="none" xmlns="http://www.w3.org/2000/svg">
<circle cx="32.0952" cy="30.0952" r="6.09524" fill="#E82D2E"/>
<circle cx="49.6187" cy="30.0952" r="6.09524" fill="#759B37"/>
<circle cx="66.3804" cy="30.0952" r="6.09524" fill="#FBDB21"/>
<circle cx="83.9038" cy="30.0952" r="6.09524" fill="#091570"/>
<path d="M48.3786 51C48.4106 51 48.4266 51.048 48.4266 51.144C48.4266 51.24 48.4106 51.288 48.3786 51.288C47.8026 51.288 47.2746 51.504 46.7946 51.936C46.3146 52.368 45.9146 52.992 45.5946 53.808L40.9386 65.976C40.9226 66.04 40.8346 66.072 40.6746 66.072C40.5146 66.072 40.4266 66.04 40.4106 65.976L37.3146 59.352L34.7946 65.976C34.7786 66.04 34.6906 66.072 34.5306 66.072C34.3706 66.072 34.2826 66.04 34.2666 65.976L28.1946 52.992C27.8586 52.288 27.5706 51.832 27.3306 51.624C27.1066 51.4 26.7626 51.288 26.2986 51.288C26.2506 51.288 26.2266 51.24 26.2266 51.144C26.2266 51.048 26.2506 51 26.2986 51L26.9226 51.024C27.2746 51.056 27.6746 51.072 28.1226 51.072C29.0186 51.072 29.8346 51.056 30.5706 51.024C30.7946 51.008 31.0746 51 31.4106 51C31.4586 51 31.4826 51.048 31.4826 51.144C31.4826 51.24 31.4586 51.288 31.4106 51.288C30.9786 51.288 30.6666 51.336 30.4746 51.432C30.2986 51.512 30.2106 51.672 30.2106 51.912C30.2106 52.184 30.3546 52.632 30.6426 53.256L35.2266 63.024L36.9546 58.56L34.3386 52.992C34.0506 52.4 33.7786 51.968 33.5226 51.696C33.2826 51.424 32.9946 51.288 32.6586 51.288C32.6106 51.288 32.5866 51.24 32.5866 51.144C32.5866 51.048 32.6106 51 32.6586 51L33.2346 51.024C33.5866 51.056 33.9386 51.072 34.2906 51.072C35.0426 51.072 35.7066 51.056 36.2826 51.024C36.4426 51.008 36.6506 51 36.9066 51C36.9546 51 36.9786 51.048 36.9786 51.144C36.9786 51.24 36.9546 51.288 36.9066 51.288C36.6506 51.288 36.4666 51.32 36.3546 51.384C36.2586 51.432 36.2106 51.528 36.2106 51.672C36.2106 51.928 36.4026 52.456 36.7866 53.256L38.0826 55.992L38.9466 53.712C39.2346 52.96 39.3786 52.392 39.3786 52.008C39.3786 51.528 39.1386 51.288 38.6586 51.288C38.6106 51.288 38.5866 51.24 38.5866 51.144C38.5866 51.048 38.6106 51 38.6586 51C38.8026 51 38.9706 51.016 39.1626 51.048C39.3546 51.064 39.7066 51.072 40.2186 51.072C40.5066 51.072 40.8426 51.056 41.2266 51.024L42.1626 51C42.1946 51 42.2106 51.048 42.2106 51.144C42.2106 51.24 42.1946 51.288 42.1626 51.288C41.6186 51.288 41.1386 51.488 40.7226 51.888C40.3066 52.288 39.9306 52.928 39.5946 53.808L38.4426 56.784L41.3946 63.024L44.8986 53.88C45.0586 53.464 45.1386 53.072 45.1386 52.704C45.1386 52.256 45.0026 51.912 44.7306 51.672C44.4746 51.416 44.1066 51.288 43.6266 51.288C43.5786 51.288 43.5546 51.24 43.5546 51.144C43.5546 51.048 43.5786 51 43.6266 51L44.6826 51.024C45.2586 51.056 45.7786 51.072 46.2426 51.072C46.5626 51.072 46.9306 51.056 47.3466 51.024L48.3786 51ZM66.0038 65.712C66.0518 65.712 66.0758 65.76 66.0758 65.856C66.0758 65.952 66.0518 66 66.0038 66C65.4598 66 65.0198 65.992 64.6838 65.976L62.9318 65.952L60.8918 65.976C60.6038 65.992 60.2198 66 59.7398 66C59.6918 66 59.6678 65.952 59.6678 65.856C59.6678 65.76 59.6918 65.712 59.7398 65.712C60.3478 65.712 60.7878 65.672 61.0598 65.592C61.3318 65.512 61.5158 65.36 61.6118 65.136C61.7078 64.912 61.7558 64.552 61.7558 64.056V58.512H53.5238V64.056C53.5238 64.536 53.5718 64.896 53.6678 65.136C53.7638 65.36 53.9478 65.512 54.2198 65.592C54.5078 65.672 54.9558 65.712 55.5638 65.712C55.5958 65.712 55.6118 65.76 55.6118 65.856C55.6118 65.952 55.5958 66 55.5638 66C55.0198 66 54.5958 65.992 54.2918 65.976L52.2998 65.952L50.5478 65.976C50.2438 65.992 49.8198 66 49.2758 66C49.2438 66 49.2278 65.952 49.2278 65.856C49.2278 65.76 49.2438 65.712 49.2758 65.712C49.8518 65.712 50.2758 65.672 50.5478 65.592C50.8198 65.512 51.0038 65.36 51.0998 65.136C51.1958 64.896 51.2438 64.536 51.2438 64.056V52.944C51.2438 52.464 51.1958 52.112 51.0998 51.888C51.0038 51.664 50.8198 51.512 50.5478 51.432C50.2758 51.336 49.8598 51.288 49.2998 51.288C49.2678 51.288 49.2518 51.24 49.2518 51.144C49.2518 51.048 49.2678 51 49.2998 51L50.5718 51.024C51.3078 51.056 51.8838 51.072 52.2998 51.072C52.8598 51.072 53.5238 51.056 54.2918 51.024L55.5638 51C55.5958 51 55.6118 51.048 55.6118 51.144C55.6118 51.24 55.5958 51.288 55.5638 51.288C54.9718 51.288 54.5318 51.336 54.2438 51.432C53.9718 51.528 53.7798 51.696 53.6678 51.936C53.5718 52.16 53.5238 52.512 53.5238 52.992V57.888H61.7558V52.992C61.7558 52.512 61.7078 52.16 61.6118 51.936C61.5158 51.696 61.3238 51.528 61.0358 51.432C60.7638 51.336 60.3318 51.288 59.7398 51.288C59.6918 51.288 59.6678 51.24 59.6678 51.144C59.6678 51.048 59.6918 51 59.7398 51L60.8918 51.024C61.6598 51.056 62.3398 51.072 62.9318 51.072C63.3638 51.072 63.9478 51.056 64.6838 51.024L66.0038 51C66.0518 51 66.0758 51.048 66.0758 51.144C66.0758 51.24 66.0518 51.288 66.0038 51.288C65.4278 51.288 65.0038 51.336 64.7318 51.432C64.4758 51.512 64.2998 51.664 64.2038 51.888C64.1078 52.112 64.0598 52.464 64.0598 52.944V64.056C64.0598 64.536 64.1078 64.896 64.2038 65.136C64.2998 65.36 64.4758 65.512 64.7318 65.592C65.0038 65.672 65.4278 65.712 66.0038 65.712ZM78.7751 62.256C78.7751 62.224 78.8071 62.208 78.8711 62.208C78.9191 62.208 78.9591 62.224 78.9911 62.256C79.0391 62.272 79.0631 62.288 79.0631 62.304C78.9031 63.52 78.8231 64.632 78.8231 65.64C78.8231 65.768 78.7991 65.864 78.7511 65.928C78.7031 65.976 78.6071 66 78.4631 66H68.0471C67.9991 66 67.9751 65.952 67.9751 65.856C67.9751 65.76 67.9991 65.712 68.0471 65.712C68.5911 65.712 68.9831 65.672 69.2231 65.592C69.4791 65.512 69.6471 65.36 69.7271 65.136C69.8231 64.896 69.8711 64.536 69.8711 64.056V52.944C69.8711 52.464 69.8231 52.112 69.7271 51.888C69.6471 51.664 69.4791 51.512 69.2231 51.432C68.9671 51.336 68.5751 51.288 68.0471 51.288C67.9991 51.288 67.9751 51.24 67.9751 51.144C67.9751 51.048 67.9991 51 68.0471 51H78.0311C78.1911 51 78.2711 51.072 78.2711 51.216L78.3191 54.336C78.3191 54.368 78.2711 54.392 78.1751 54.408C78.0951 54.424 78.0471 54.408 78.0311 54.36C77.6471 52.536 76.5351 51.624 74.6951 51.624H73.7351C73.1591 51.624 72.7511 51.728 72.5111 51.936C72.2711 52.144 72.1511 52.496 72.1511 52.992V57.888H74.4551C76.2151 57.888 77.0951 57.296 77.0951 56.112C77.0951 56.064 77.1351 56.04 77.2151 56.04C77.3111 56.04 77.3591 56.064 77.3591 56.112L77.3351 58.2L77.3591 59.328C77.3911 59.84 77.4071 60.256 77.4071 60.576C77.4071 60.608 77.3591 60.624 77.2631 60.624C77.1671 60.624 77.1191 60.608 77.1191 60.576C77.1191 59.2 76.2231 58.512 74.4311 58.512H72.1511V63.96C72.1511 64.488 72.2471 64.856 72.4391 65.064C72.6471 65.272 73.0071 65.376 73.5191 65.376H74.6951C76.8391 65.376 78.1991 64.336 78.7751 62.256ZM92.1501 62.256C92.1501 62.224 92.1821 62.208 92.2461 62.208C92.2941 62.208 92.3341 62.224 92.3661 62.256C92.4141 62.272 92.4381 62.288 92.4381 62.304C92.2781 63.52 92.1981 64.632 92.1981 65.64C92.1981 65.768 92.1741 65.864 92.1261 65.928C92.0781 65.976 91.9821 66 91.8381 66H81.4221C81.3741 66 81.3501 65.952 81.3501 65.856C81.3501 65.76 81.3741 65.712 81.4221 65.712C81.9661 65.712 82.3581 65.672 82.5981 65.592C82.8541 65.512 83.0221 65.36 83.1021 65.136C83.1981 64.896 83.2461 64.536 83.2461 64.056V52.944C83.2461 52.464 83.1981 52.112 83.1021 51.888C83.0221 51.664 82.8541 51.512 82.5981 51.432C82.3421 51.336 81.9501 51.288 81.4221 51.288C81.3741 51.288 81.3501 51.24 81.3501 51.144C81.3501 51.048 81.3741 51 81.4221 51H91.4061C91.5661 51 91.6461 51.072 91.6461 51.216L91.6941 54.336C91.6941 54.368 91.6461 54.392 91.5501 54.408C91.4701 54.424 91.4221 54.408 91.4061 54.36C91.0221 52.536 89.9101 51.624 88.0701 51.624H87.1101C86.5341 51.624 86.1261 51.728 85.8861 51.936C85.6461 52.144 85.5261 52.496 85.5261 52.992V57.888H87.8301C89.5901 57.888 90.4701 57.296 90.4701 56.112C90.4701 56.064 90.5101 56.04 90.5901 56.04C90.6861 56.04 90.7341 56.064 90.7341 56.112L90.7101 58.2L90.7341 59.328C90.7661 59.84 90.7821 60.256 90.7821 60.576C90.7821 60.608 90.7341 60.624 90.6381 60.624C90.5421 60.624 90.4941 60.608 90.4941 60.576C90.4941 59.2 89.5981 58.512 87.8061 58.512H85.5261V63.96C85.5261 64.488 85.6221 64.856 85.8141 65.064C86.0221 65.272 86.3821 65.376 86.8941 65.376H88.0701C90.2141 65.376 91.5741 64.336 92.1501 62.256ZM98.6851 63.96C98.6851 64.392 98.7171 64.704 98.7811 64.896C98.8611 65.088 99.0051 65.216 99.2131 65.28C99.4211 65.344 99.7571 65.376 100.221 65.376H101.661C102.797 65.376 103.757 65.064 104.541 64.44C105.325 63.8 105.845 62.944 106.101 61.872C106.117 61.824 106.165 61.808 106.245 61.824C106.325 61.824 106.365 61.848 106.365 61.896C106.221 63.4 106.149 64.648 106.149 65.64C106.149 65.768 106.125 65.864 106.077 65.928C106.029 65.976 105.933 66 105.789 66H94.5571C94.5251 66 94.5091 65.952 94.5091 65.856C94.5091 65.76 94.5251 65.712 94.5571 65.712C95.1011 65.712 95.4931 65.672 95.7331 65.592C95.9891 65.512 96.1571 65.36 96.2371 65.136C96.3331 64.896 96.3811 64.536 96.3811 64.056V52.944C96.3811 52.464 96.3331 52.112 96.2371 51.888C96.1571 51.664 95.9891 51.512 95.7331 51.432C95.4771 51.336 95.0851 51.288 94.5571 51.288C94.5251 51.288 94.5091 51.24 94.5091 51.144C94.5091 51.048 94.5251 51 94.5571 51L95.7811 51.024C96.4851 51.056 97.0611 51.072 97.5091 51.072C97.9891 51.072 98.5811 51.056 99.2851 51.024L100.485 51C100.533 51 100.557 51.048 100.557 51.144C100.557 51.24 100.533 51.288 100.485 51.288C99.9571 51.288 99.5651 51.336 99.3091 51.432C99.0691 51.512 98.9011 51.672 98.8051 51.912C98.7251 52.136 98.6851 52.488 98.6851 52.968V63.96Z" fill="white"/>
<path d="M19.5828 59.872C19.6468 59.872 19.6788 60.008 19.6788 60.28C19.6788 60.44 19.6628 60.6 19.6308 60.76C19.5988 60.904 19.5668 60.976 19.5348 60.976L18.9588 60.952C18.4468 60.92 18.0628 60.904 17.8068 60.904V64.384C17.8068 64.544 17.7428 64.656 17.6148 64.72L16.0308 65.512C15.9348 65.544 15.8868 65.56 15.8868 65.56C15.8388 65.56 15.8148 65.496 15.8148 65.368V60.832C14.8388 60.816 13.0068 60.808 10.3188 60.808C10.2388 60.808 10.1748 60.776 10.1268 60.712C10.0788 60.648 10.0868 60.584 10.1508 60.52L17.4468 51.496C17.4788 51.464 17.5268 51.448 17.5908 51.448C17.6388 51.448 17.6868 51.464 17.7348 51.496C17.7828 51.512 17.8068 51.544 17.8068 51.592V59.944L19.5828 59.872ZM11.6868 60.016C13.6708 60.016 15.0468 60.008 15.8148 59.992V54.712L11.5668 59.848C11.4708 59.96 11.5108 60.016 11.6868 60.016Z" fill="white"/>
<path d="M4.32 79.168H2.528V84H1.752V79.168H0.064V78.56H4.216C4.232 78.6613 4.248 78.7627 4.264 78.864C4.28 78.9653 4.29867 79.0667 4.32 79.168ZM5.83881 80.544C6.00415 80.384 6.20415 80.2533 6.43881 80.152C6.67881 80.0453 6.90281 79.992 7.11081 79.992C7.58548 79.992 7.92948 80.1307 8.14281 80.408C8.36148 80.68 8.47081 81.024 8.47081 81.44V84H7.70281V81.512C7.70281 81.2507 7.63881 81.0427 7.51081 80.888C7.38815 80.7333 7.19881 80.6533 6.94281 80.648C6.78281 80.648 6.59615 80.6987 6.38281 80.8C6.17481 80.9013 5.99348 81.0347 5.83881 81.2V84H5.07081V78.44L5.83881 78.352V80.544ZM13.0177 82.232H10.2657C10.2924 82.5893 10.4044 82.8827 10.6017 83.112C10.799 83.3413 11.095 83.456 11.4897 83.456C11.719 83.456 11.911 83.432 12.0657 83.384C12.2257 83.3307 12.3857 83.2667 12.5457 83.192L12.7857 83.752C12.615 83.8693 12.3964 83.9547 12.1297 84.008C11.8684 84.0667 11.655 84.096 11.4897 84.096C10.839 84.096 10.3377 83.9093 9.98569 83.536C9.63902 83.1573 9.46569 82.664 9.46569 82.056C9.46569 81.4533 9.62835 80.9627 9.95369 80.584C10.2844 80.2053 10.7404 80.016 11.3217 80.016C11.951 80.016 12.391 80.2373 12.6417 80.68C12.8924 81.1227 13.0177 81.64 13.0177 82.232ZM12.2737 81.712C12.2257 81.392 12.1244 81.1387 11.9697 80.952C11.815 80.7653 11.591 80.672 11.2977 80.672C10.999 80.672 10.7644 80.768 10.5937 80.96C10.423 81.1467 10.319 81.3973 10.2817 81.712H12.2737ZM16.2059 82.776V78.56H16.9739V82.92C16.9739 83.2667 16.8939 83.5307 16.7339 83.712C16.5793 83.888 16.2859 84.0427 15.8539 84.176C15.8059 84.0853 15.7553 83.9947 15.7019 83.904C15.6539 83.808 15.6033 83.7147 15.5499 83.624C15.8219 83.5227 15.9979 83.424 16.0779 83.328C16.1633 83.232 16.2059 83.048 16.2059 82.776ZM19.9821 84.104C19.3954 84.0987 18.9501 83.9067 18.6461 83.528C18.3421 83.144 18.1901 82.6507 18.1901 82.048C18.1954 81.4507 18.3607 80.9653 18.6861 80.592C19.0114 80.2133 19.4674 80.0213 20.0541 80.016C20.6621 80.016 21.1207 80.2107 21.4301 80.6C21.7447 80.984 21.9021 81.48 21.9021 82.088C21.9021 82.6907 21.7314 83.176 21.3901 83.544C21.0487 83.912 20.5794 84.0987 19.9821 84.104ZM21.1261 82.088C21.1261 81.672 21.0434 81.3333 20.8781 81.072C20.7127 80.8053 20.4461 80.672 20.0781 80.672C19.7101 80.672 19.4354 80.7973 19.2541 81.048C19.0727 81.2933 18.9794 81.624 18.9741 82.04C18.9741 82.472 19.0514 82.816 19.2061 83.072C19.3661 83.3227 19.6301 83.448 19.9981 83.448C20.3607 83.448 20.6381 83.328 20.8301 83.088C21.0221 82.848 21.1207 82.5147 21.1261 82.088ZM23.7068 84.488L23.9308 83.896L22.4668 80.232L23.2428 80.12L24.3228 82.904L25.3468 80.12H26.1388L24.8348 83.536L24.4188 84.704C24.3175 84.9707 24.1415 85.1973 23.8908 85.384C23.6455 85.5707 23.3735 85.6987 23.0748 85.768L22.8188 85.176C23.0108 85.0907 23.1895 85 23.3548 84.904C23.5201 84.808 23.6375 84.6693 23.7068 84.488ZM28.8084 81.304C28.8084 80.488 29.0164 79.8107 29.4324 79.272C29.8538 78.728 30.4591 78.448 31.2484 78.432C32.0911 78.432 32.7071 78.712 33.0964 79.272C33.4858 79.8267 33.6804 80.4853 33.6804 81.248C33.6804 82.0427 33.4698 82.7173 33.0484 83.272C32.6271 83.8213 32.0191 84.1013 31.2244 84.112C30.3871 84.112 29.7738 83.8347 29.3844 83.28C29.0004 82.7253 28.8084 82.0667 28.8084 81.304ZM29.6084 81.296C29.6084 81.904 29.7364 82.416 29.9924 82.832C30.2538 83.248 30.6618 83.456 31.2164 83.456C31.7231 83.456 32.1231 83.2613 32.4164 82.872C32.7151 82.4827 32.8644 81.9413 32.8644 81.248C32.8644 80.6453 32.7364 80.136 32.4804 79.72C32.2244 79.304 31.8191 79.096 31.2644 79.096C30.7684 79.096 30.3684 79.3013 30.0644 79.712C29.7604 80.1173 29.6084 80.6453 29.6084 81.296ZM34.9707 79.664C34.9707 79.2747 35.08 78.9653 35.2987 78.736C35.5174 78.5013 35.8187 78.384 36.2027 78.384C36.32 78.384 36.44 78.4027 36.5627 78.44C36.6854 78.4773 36.7814 78.5173 36.8507 78.56L36.6587 79.152C36.6054 79.1307 36.5414 79.112 36.4667 79.096C36.3974 79.0747 36.3334 79.064 36.2747 79.064C36.0827 79.064 35.944 79.128 35.8587 79.256C35.7787 79.3787 35.7387 79.5387 35.7387 79.736V80.2H36.4587L36.7067 80.792H35.7387V84H34.9707V80.792H34.3867L34.3787 80.2H34.9707V79.664ZM43.2859 79.168H41.4939V84H40.7179V79.168H39.0299V78.56H43.1819C43.1979 78.6613 43.2139 78.7627 43.2299 78.864C43.2459 78.9653 43.2646 79.0667 43.2859 79.168ZM44.0127 84V80.12H44.4447L44.6927 80.672C44.8421 80.544 45.0287 80.4213 45.2527 80.304C45.4821 80.1813 45.7007 80.12 45.9087 80.12L46.0767 80.736C45.8634 80.736 45.6394 80.7947 45.4047 80.912C45.1754 81.024 44.9674 81.1707 44.7807 81.352V84H44.0127ZM47.3077 82.88C47.3077 83.0293 47.361 83.168 47.4677 83.296C47.5744 83.424 47.737 83.488 47.9557 83.488C48.153 83.488 48.337 83.44 48.5077 83.344C48.6837 83.248 48.8384 83.1253 48.9717 82.976V82.192H48.0277C47.793 82.192 47.6144 82.2613 47.4917 82.4C47.369 82.5387 47.3077 82.6987 47.3077 82.88ZM46.8517 80.36C47.001 80.2587 47.217 80.176 47.4997 80.112C47.7824 80.048 48.0064 80.016 48.1717 80.016C48.6197 80.016 48.993 80.1413 49.2917 80.392C49.5904 80.6427 49.7397 80.968 49.7397 81.368V84H49.3077C49.2704 83.9413 49.2357 83.88 49.2037 83.816C49.1717 83.752 49.1397 83.6907 49.1077 83.632C48.9744 83.7493 48.8037 83.856 48.5957 83.952C48.3877 84.048 48.1797 84.096 47.9717 84.096C47.513 84.096 47.1717 83.9813 46.9477 83.752C46.729 83.5227 46.6197 83.232 46.6197 82.88C46.6197 82.4907 46.7504 82.1947 47.0117 81.992C47.2784 81.784 47.6224 81.68 48.0437 81.68H48.9637C48.9637 81.4133 48.9104 81.184 48.8037 80.992C48.697 80.8 48.4917 80.704 48.1877 80.704C47.9584 80.704 47.7504 80.7333 47.5637 80.792C47.377 80.8453 47.2117 80.904 47.0677 80.968L46.8517 80.36ZM51.9542 84L50.4662 80.232L51.2502 80.12L52.3222 82.92L53.3462 80.12H54.1382L52.6662 84H51.9542ZM58.2452 82.232H55.4932C55.5199 82.5893 55.6319 82.8827 55.8292 83.112C56.0265 83.3413 56.3225 83.456 56.7172 83.456C56.9465 83.456 57.1385 83.432 57.2932 83.384C57.4532 83.3307 57.6132 83.2667 57.7732 83.192L58.0132 83.752C57.8425 83.8693 57.6239 83.9547 57.3572 84.008C57.0959 84.0667 56.8825 84.096 56.7172 84.096C56.0665 84.096 55.5652 83.9093 55.2132 83.536C54.8665 83.1573 54.6932 82.664 54.6932 82.056C54.6932 81.4533 54.8559 80.9627 55.1812 80.584C55.5119 80.2053 55.9679 80.016 56.5492 80.016C57.1785 80.016 57.6185 80.2373 57.8692 80.68C58.1199 81.1227 58.2452 81.64 58.2452 82.232ZM57.5012 81.712C57.4532 81.392 57.3519 81.1387 57.1972 80.952C57.0425 80.7653 56.8185 80.672 56.5252 80.672C56.2265 80.672 55.9919 80.768 55.8212 80.96C55.6505 81.1467 55.5465 81.3973 55.5092 81.712H57.5012ZM59.2708 84V78.44L60.0388 78.352V84H59.2708ZM61.3352 84V78.44L62.1032 78.352V84H61.3352ZM63.7676 79.424C63.6342 79.424 63.5222 79.3787 63.4316 79.288C63.3409 79.192 63.2956 79.0773 63.2956 78.944C63.2902 78.8107 63.3329 78.6987 63.4236 78.608C63.5196 78.512 63.6342 78.464 63.7676 78.464C63.9009 78.464 64.0156 78.512 64.1116 78.608C64.2076 78.6987 64.2556 78.8107 64.2556 78.944C64.2556 79.0773 64.2076 79.192 64.1116 79.288C64.0156 79.3787 63.9009 79.424 63.7676 79.424ZM63.3836 84V80.12H64.1596V84H63.3836ZM66.0807 80.632C66.246 80.4507 66.4594 80.2987 66.7207 80.176C66.982 80.0533 67.2247 79.992 67.4487 79.992C67.9234 79.992 68.2674 80.1307 68.4807 80.408C68.6994 80.68 68.8087 81.024 68.8087 81.44V84H68.0407V81.512C68.0407 81.2507 67.9767 81.0427 67.8487 80.888C67.726 80.7333 67.5394 80.6533 67.2887 80.648C67.1287 80.648 66.942 80.6987 66.7287 80.8C66.5154 80.9013 66.3314 81.0347 66.1767 81.2V84H65.4087V80.12H65.8407L66.0807 80.632ZM72.5879 81.024C72.4439 80.9067 72.2919 80.816 72.1319 80.752C71.9773 80.6827 71.8279 80.648 71.6839 80.648C71.2839 80.648 71.0013 80.7893 70.8359 81.072C70.6759 81.3547 70.5959 81.68 70.5959 82.048C70.5959 82.4373 70.6733 82.768 70.8279 83.04C70.9826 83.312 71.2679 83.448 71.6839 83.448C71.8279 83.448 71.9773 83.416 72.1319 83.352C72.2919 83.2827 72.4439 83.1893 72.5879 83.072V81.024ZM73.3639 84.208C73.3639 84.6347 73.2173 84.9893 72.9239 85.272C72.6306 85.56 72.1853 85.704 71.5879 85.704C71.4226 85.704 71.1959 85.6693 70.9079 85.6C70.6253 85.536 70.3933 85.4427 70.2119 85.32C70.2493 85.2293 70.2866 85.136 70.3239 85.04C70.3666 84.9493 70.4066 84.8587 70.4439 84.768C70.6306 84.8533 70.8039 84.9253 70.9639 84.984C71.1293 85.048 71.3293 85.08 71.5639 85.08C71.8839 85.08 72.1346 85.0053 72.3159 84.856C72.4973 84.7067 72.5879 84.488 72.5879 84.2V83.736C72.4279 83.848 72.2519 83.936 72.0599 84C71.8679 84.064 71.6893 84.096 71.5239 84.096C70.9586 84.096 70.5319 83.904 70.2439 83.52C69.9559 83.1307 69.8119 82.6427 69.8119 82.056C69.8119 81.464 69.9586 80.9733 70.2519 80.584C70.5506 80.1893 70.9826 79.992 71.5479 79.992C71.7346 79.992 71.9373 80.0373 72.1559 80.128C72.3799 80.2133 72.5746 80.3253 72.7399 80.464L72.9239 80.12H73.3639V84.208ZM76.5456 81.304C76.5456 80.488 76.7536 79.8107 77.1696 79.272C77.591 78.728 78.1963 78.448 78.9856 78.432C79.8283 78.432 80.4443 78.712 80.8336 79.272C81.223 79.8267 81.4176 80.4853 81.4176 81.248C81.4176 82.0427 81.207 82.7173 80.7856 83.272C80.3643 83.8213 79.7563 84.1013 78.9616 84.112C78.1243 84.112 77.511 83.8347 77.1216 83.28C76.7376 82.7253 76.5456 82.0667 76.5456 81.304ZM77.3456 81.296C77.3456 81.904 77.4736 82.416 77.7296 82.832C77.991 83.248 78.399 83.456 78.9536 83.456C79.4603 83.456 79.8603 83.2613 80.1536 82.872C80.4523 82.4827 80.6016 81.9413 80.6016 81.248C80.6016 80.6453 80.4736 80.136 80.2176 79.72C79.9616 79.304 79.5563 79.096 79.0016 79.096C78.5056 79.096 78.1056 79.3013 77.8016 79.712C77.4976 80.1173 77.3456 80.6453 77.3456 81.296ZM83.2679 80.632C83.4332 80.4507 83.6465 80.2987 83.9079 80.176C84.1692 80.0533 84.4119 79.992 84.6359 79.992C85.1105 79.992 85.4545 80.1307 85.6679 80.408C85.8865 80.68 85.9959 81.024 85.9959 81.44V84H85.2279V81.512C85.2279 81.2507 85.1639 81.0427 85.0359 80.888C84.9132 80.7333 84.7265 80.6533 84.4759 80.648C84.3159 80.648 84.1292 80.6987 83.9159 80.8C83.7025 80.9013 83.5185 81.0347 83.3639 81.2V84H82.5959V80.12H83.0279L83.2679 80.632ZM93.9618 84L92.5378 79.736L91.1858 84H90.4578L88.6418 78.68L89.3938 78.56L90.8258 82.92L92.2018 78.56H92.9218L94.3538 82.92L95.7218 78.56H96.4898L94.6898 84H93.9618ZM97.9794 80.544C98.1448 80.384 98.3448 80.2533 98.5794 80.152C98.8194 80.0453 99.0434 79.992 99.2514 79.992C99.7261 79.992 100.07 80.1307 100.283 80.408C100.502 80.68 100.611 81.024 100.611 81.44V84H99.8434V81.512C99.8434 81.2507 99.7794 81.0427 99.6514 80.888C99.5288 80.7333 99.3394 80.6533 99.0834 80.648C98.9234 80.648 98.7368 80.6987 98.5234 80.8C98.3154 80.9013 98.1341 81.0347 97.9794 81.2V84H97.2114V78.44L97.9794 78.352V80.544ZM105.158 82.232H102.406C102.433 82.5893 102.545 82.8827 102.742 83.112C102.94 83.3413 103.236 83.456 103.63 83.456C103.86 83.456 104.052 83.432 104.206 83.384C104.366 83.3307 104.526 83.2667 104.686 83.192L104.926 83.752C104.756 83.8693 104.537 83.9547 104.27 84.008C104.009 84.0667 103.796 84.096 103.63 84.096C102.98 84.096 102.478 83.9093 102.126 83.536C101.78 83.1573 101.606 82.664 101.606 82.056C101.606 81.4533 101.769 80.9627 102.094 80.584C102.425 80.2053 102.881 80.016 103.462 80.016C104.092 80.016 104.532 80.2373 104.782 80.68C105.033 81.1227 105.158 81.64 105.158 82.232ZM104.414 81.712C104.366 81.392 104.265 81.1387 104.11 80.952C103.956 80.7653 103.732 80.672 103.438 80.672C103.14 80.672 102.905 80.768 102.734 80.96C102.564 81.1467 102.46 81.3973 102.422 81.712H104.414ZM109.504 82.232H106.752C106.779 82.5893 106.891 82.8827 107.088 83.112C107.285 83.3413 107.581 83.456 107.976 83.456C108.205 83.456 108.397 83.432 108.552 83.384C108.712 83.3307 108.872 83.2667 109.032 83.192L109.272 83.752C109.101 83.8693 108.883 83.9547 108.616 84.008C108.355 84.0667 108.141 84.096 107.976 84.096C107.325 84.096 106.824 83.9093 106.472 83.536C106.125 83.1573 105.952 82.664 105.952 82.056C105.952 81.4533 106.115 80.9627 106.44 80.584C106.771 80.2053 107.227 80.016 107.808 80.016C108.437 80.016 108.877 80.2373 109.128 80.68C109.379 81.1227 109.504 81.64 109.504 82.232ZM108.76 81.712C108.712 81.392 108.611 81.1387 108.456 80.952C108.301 80.7653 108.077 80.672 107.784 80.672C107.485 80.672 107.251 80.768 107.08 80.96C106.909 81.1467 106.805 81.3973 106.768 81.712H108.76ZM110.53 84V78.44L111.298 78.352V84H110.53ZM114.794 80.936C114.645 80.8667 114.487 80.8053 114.322 80.752C114.162 80.6987 113.978 80.672 113.77 80.672C113.567 80.672 113.405 80.7147 113.282 80.8C113.165 80.88 113.106 80.9893 113.106 81.128C113.111 81.2453 113.181 81.3493 113.314 81.44C113.453 81.5253 113.639 81.608 113.874 81.688C114.194 81.8053 114.493 81.9653 114.77 82.168C115.047 82.3653 115.186 82.624 115.186 82.944C115.186 83.3067 115.05 83.592 114.778 83.8C114.511 84.0027 114.122 84.104 113.61 84.104C113.445 84.104 113.231 84.0747 112.97 84.016C112.709 83.9573 112.495 83.8693 112.33 83.752L112.57 83.184C112.735 83.264 112.906 83.328 113.082 83.376C113.258 83.424 113.434 83.448 113.61 83.448C113.866 83.448 114.063 83.408 114.202 83.328C114.346 83.248 114.418 83.1333 114.418 82.984C114.418 82.8347 114.341 82.7067 114.186 82.6C114.037 82.488 113.837 82.392 113.586 82.312C113.282 82.2107 112.994 82.0693 112.722 81.888C112.45 81.7067 112.314 81.4587 112.314 81.144C112.314 80.792 112.445 80.5173 112.706 80.32C112.973 80.1173 113.333 80.016 113.786 80.016C113.951 80.016 114.159 80.048 114.41 80.112C114.661 80.176 114.869 80.2667 115.034 80.384L114.794 80.936Z" fill="white"/>
<line y1="93.75" x2="116" y2="93.75" stroke="white" stroke-width="0.5"/>
<path d="M39.752 107V101.56H42.816C42.8373 101.661 42.8533 101.76 42.864 101.856C42.88 101.952 42.8987 102.051 42.92 102.152H40.52V103.936H42.048C42.064 104.037 42.08 104.139 42.096 104.24C42.112 104.336 42.1307 104.432 42.152 104.528H40.52V106.4H43.104L43.208 107H39.752ZM44.1421 106.096C44.2914 106.171 44.4914 106.248 44.7421 106.328C44.9927 106.403 45.2407 106.44 45.4861 106.44C45.8754 106.44 46.1714 106.368 46.3741 106.224C46.5767 106.08 46.6781 105.891 46.6781 105.656C46.6781 105.117 46.2087 104.72 45.2701 104.464C44.3367 104.203 43.8701 103.661 43.8701 102.84C43.8701 102.445 44.0274 102.112 44.3421 101.84C44.6621 101.568 45.0994 101.432 45.6541 101.432C45.9261 101.432 46.1874 101.469 46.4381 101.544C46.6941 101.619 46.9127 101.701 47.0941 101.792C47.0567 101.893 47.0141 101.995 46.9661 102.096C46.9181 102.197 46.8754 102.299 46.8381 102.4C46.6994 102.331 46.5394 102.267 46.3581 102.208C46.1821 102.144 45.9661 102.112 45.7101 102.112C45.4061 102.112 45.1501 102.171 44.9421 102.288C44.7394 102.405 44.6381 102.584 44.6381 102.824C44.6381 103.373 45.1074 103.781 46.0461 104.048C46.9847 104.315 47.4541 104.845 47.4541 105.64C47.4541 106.067 47.2834 106.419 46.9421 106.696C46.6061 106.968 46.1234 107.104 45.4941 107.104C45.2647 107.104 44.9794 107.061 44.6381 106.976C44.2967 106.891 44.0727 106.8 43.9661 106.704C43.9927 106.603 44.0194 106.501 44.0461 106.4C44.0781 106.299 44.1101 106.197 44.1421 106.096ZM52.23 102.168H50.438V107H49.662V102.168H47.974V101.56H52.126C52.142 101.661 52.158 101.763 52.174 101.864C52.19 101.965 52.2087 102.067 52.23 102.168ZM53.1248 107V101.56H55.0048C55.8475 101.56 56.4608 101.819 56.8448 102.336C57.2341 102.848 57.4288 103.485 57.4288 104.248C57.4288 105.043 57.2181 105.701 56.7968 106.224C56.3755 106.741 55.7675 107 54.9728 107H53.1248ZM55.0368 102.216H53.8928V106.36H54.9728C55.4741 106.36 55.8795 106.181 56.1888 105.824C56.4981 105.467 56.6528 104.944 56.6528 104.256C56.6528 103.653 56.5221 103.163 56.2608 102.784C55.9995 102.405 55.5915 102.216 55.0368 102.216ZM62.8894 107H60.5934L60.5214 106.44H61.3854V103.376L60.8734 103.704L60.5134 103.176L61.6414 102.472H62.1534V106.44H62.8174L62.8894 107ZM63.7142 104.048C63.7142 103.616 63.8689 103.229 64.1782 102.888C64.4876 102.541 64.8902 102.368 65.3862 102.368C65.9516 102.368 66.4129 102.555 66.7702 102.928C67.1329 103.296 67.3142 103.843 67.3142 104.568C67.3142 105.155 67.0982 105.763 66.6662 106.392C66.2342 107.021 65.6716 107.408 64.9782 107.552L64.6422 107.056C65.0902 106.955 65.4769 106.731 65.8022 106.384C66.1329 106.032 66.3569 105.648 66.4742 105.232C66.3356 105.344 66.1702 105.443 65.9782 105.528C65.7916 105.608 65.5996 105.648 65.4022 105.648C64.8902 105.648 64.4796 105.488 64.1702 105.168C63.8662 104.843 63.7142 104.469 63.7142 104.048ZM64.4342 104C64.4342 104.272 64.5196 104.52 64.6902 104.744C64.8609 104.963 65.0982 105.072 65.4022 105.072C65.6849 105.072 65.9302 105 66.1382 104.856C66.3462 104.707 66.4956 104.544 66.5862 104.368C66.5542 103.963 66.4422 103.635 66.2502 103.384C66.0582 103.133 65.7756 103.008 65.4022 103.008C65.1036 103.008 64.8662 103.109 64.6902 103.312C64.5196 103.515 64.4342 103.744 64.4342 104ZM71.9129 105.584C71.9129 105.995 71.7555 106.352 71.4409 106.656C71.1262 106.955 70.6782 107.104 70.0969 107.104C69.5102 107.104 69.0595 106.955 68.7449 106.656C68.4302 106.357 68.2729 106 68.2729 105.584C68.2729 105.307 68.3715 105.04 68.5689 104.784C68.7715 104.523 69.0035 104.357 69.2649 104.288C69.0409 104.192 68.8542 104.051 68.7049 103.864C68.5609 103.672 68.4889 103.453 68.4889 103.208C68.4889 102.851 68.6275 102.536 68.9049 102.264C69.1875 101.992 69.5849 101.856 70.0969 101.856C70.6089 101.856 71.0035 101.992 71.2809 102.264C71.5635 102.536 71.7049 102.851 71.7049 103.208C71.7049 103.453 71.6249 103.672 71.4649 103.864C71.3102 104.051 71.1289 104.192 70.9209 104.288C71.1769 104.357 71.4062 104.515 71.6089 104.76C71.8115 105.005 71.9129 105.28 71.9129 105.584ZM69.2009 103.216C69.2009 103.413 69.2782 103.587 69.4329 103.736C69.5875 103.885 69.8089 103.981 70.0969 104.024C70.3849 103.981 70.6035 103.885 70.7529 103.736C70.9075 103.587 70.9849 103.413 70.9849 103.216C70.9849 103.019 70.9049 102.848 70.7449 102.704C70.5902 102.555 70.3689 102.48 70.0809 102.48C69.8035 102.48 69.5875 102.555 69.4329 102.704C69.2782 102.853 69.2009 103.024 69.2009 103.216ZM68.9929 105.6C68.9929 105.872 69.1022 106.088 69.3209 106.248C69.5395 106.403 69.7982 106.48 70.0969 106.48C70.3849 106.48 70.6382 106.403 70.8569 106.248C71.0809 106.088 71.1929 105.872 71.1929 105.6C71.1929 105.355 71.0995 105.139 70.9129 104.952C70.7315 104.76 70.4595 104.637 70.0969 104.584C69.7289 104.637 69.4515 104.76 69.2649 104.952C69.0835 105.139 68.9929 105.355 68.9929 105.6ZM75.2934 107H72.9974L72.9254 106.44H73.7894V103.376L73.2774 103.704L72.9174 103.176L74.0454 102.472H74.5574V106.44H75.2214L75.2934 107Z" fill="white"/>
<path d="M46.4219 1.37927C35.6509 2.96563 27.6141 8.05867 23.2781 16.0183C22.2562 17.8829 20.8477 21 21.0134 21C21.0686 21 21.7314 20.1651 22.5047 19.1075C27.2274 12.7064 35.3747 7.47422 43.6877 5.55389C51.034 3.82838 60.2584 3.88404 68.5162 5.69305C76.9396 7.52988 86.3297 11.454 92.7923 15.7956C96.1893 18.0778 96.1341 18.0499 95.9131 17.716C95.8303 17.549 94.5875 16.4357 93.179 15.2669C84.3688 7.80819 72.8522 2.96563 60.1203 1.35144C56.2814 0.878315 49.8189 0.878315 46.4219 1.37927ZM60.3965 1.93589C61.087 2.01938 54.7737 3.52129 55.1603 3.63261C55.547 3.71611 63.6554 4.24584 64.1249 4.30151C64.5944 4.32934 64.9535 4.32934 66.4724 4.71897C67.9638 5.1086 70.8195 5.66458 71.1233 5.72024C72.0071 5.85939 76.3619 7.30518 76.5 7.5C76.5829 7.61132 76.4423 7.26924 76.829 7.38057C77.8508 7.68671 73.491 6.01957 74.3196 6.60402C74.7062 6.88233 81.0798 9.11738 81.1902 9.00605C81.2731 8.92256 81.248 8.86576 81.248 9.03275C81.248 9.22756 82.8343 10 83 10C82.2819 9.52688 83.1381 10 83 10C84.7399 11.1132 87.7106 12.0385 84.7831 10.6748C83.115 9.8977 81.8556 9.31105 81.248 9.03275C78.072 7.55771 70.118 5.24776 66.4724 4.71897C66 4 64.8982 4.44066 64.1249 4.30151C60.8936 3.63357 53.1606 3.41092 50.0398 3.88404C49.5979 3.93971 48.4656 4.07886 47.5542 4.16235C46.6428 4.27367 44.82 2.15853 43.6877 2.46467C42.5553 2.79864 41.5611 5.52606 41.3402 5.55389C41.1192 5.58173 40.7326 5.69305 40.5116 5.77654C37.9708 6.66713 36.15 5.85784 34.5 8C31.1582 9.64202 39.4856 4.78437 37 7.12216C35.8677 8.17973 36.8658 3.03738 30.5 10C36.85 4.5 31 10.5 34.5 8C34.6105 7.86085 42.942 5.63852 43.6877 4.7201C55.1877 -1.7799 38.9098 7.33507 41.3402 5.55389C42.942 4.35717 49.1008 4.10669 50.0398 3.88404C50.2607 3.82838 65 3.5 60.3965 1.93589C60.6451 1.68541 42.5553 2.63166 43.6877 2.46467C44.2953 2.38118 44.9171 3.02783 45 3C45.0829 2.94434 48.8246 3.96754 50.0398 3.88404C51.2274 3.77272 53.9448 3.05566 54 3C54.1657 2.86085 58.9328 1.74107 60.3965 1.93589Z" fill="#FCFDFF"/>
<path d="M46.4219 1.37927C35.6509 2.96563 27.6141 8.05867 23.2781 16.0183C22.2562 17.8829 20.8477 21 21.0134 21C21.0686 21 21.7314 20.1651 22.5047 19.1075C27.2274 12.7064 35.3747 7.47422 43.6877 5.55389C51.034 3.82838 60.2584 3.88404 68.5162 5.69305C76.9396 7.52988 86.3297 11.454 92.7923 15.7956C96.1893 18.0778 96.1341 18.0499 95.9131 17.716C95.8303 17.549 94.5875 16.4357 93.179 15.2669C84.3688 7.80819 72.8522 2.96563 60.1203 1.35144C56.2814 0.878315 49.8189 0.878315 46.4219 1.37927ZM60.3965 1.93589C61.087 2.01938 54.7737 3.52129 55.1603 3.63261C55.547 3.71611 63.6554 4.24584 64.1249 4.30151C64.5944 4.32934 64.9535 4.32934 66.4724 4.71897C67.9638 5.1086 70.8195 5.66458 71.1233 5.72024C72.0071 5.85939 76.3619 7.30518 76.5 7.5C76.5829 7.61132 76.4423 7.26924 76.829 7.38057C77.8508 7.68671 73.491 6.01957 74.3196 6.60402C74.7062 6.88233 81.0798 9.11738 81.1902 9.00605C81.2731 8.92256 81.248 8.86576 81.248 9.03275C81.248 9.22756 82.8343 10 83 10C82.2819 9.52688 83.1381 10 83 10C84.7399 11.1132 87.7106 12.0385 84.7831 10.6748C83.115 9.8977 81.8556 9.31105 81.248 9.03275C78.072 7.55771 70.118 5.24776 66.4724 4.71897C66 4 64.8982 4.44066 64.1249 4.30151C60.8936 3.63357 53.1606 3.41092 50.0398 3.88404C49.5979 3.93971 48.4656 4.07886 47.5542 4.16235C46.6428 4.27367 44.82 2.15853 43.6877 2.46467C42.5553 2.79864 41.5611 5.52606 41.3402 5.55389C41.1192 5.58173 40.7326 5.69305 40.5116 5.77654C37.9708 6.66713 36.15 5.85784 34.5 8C31.1582 9.64202 39.4856 4.78437 37 7.12216C35.8677 8.17973 36.8658 3.03738 30.5 10C36.85 4.5 31 10.5 34.5 8C34.6105 7.86085 42.942 5.63852 43.6877 4.7201C55.1877 -1.7799 38.9098 7.33507 41.3402 5.55389C42.942 4.35717 49.1008 4.10669 50.0398 3.88404C50.2607 3.82838 65 3.5 60.3965 1.93589C60.6451 1.68541 42.5553 2.63166 43.6877 2.46467C44.2953 2.38118 44.9171 3.02783 45 3C45.0829 2.94434 48.8246 3.96754 50.0398 3.88404C51.2274 3.77272 53.9448 3.05566 54 3C54.1657 2.86085 58.9328 1.74107 60.3965 1.93589Z" fill="white"/>
<circle cx="89.5" cy="3.5" r="3.4" stroke="white" stroke-width="0.2"/>
<path d="M90.0434 5L89.2734 3.64H88.9434V5H88.2434V1.51H89.5534C89.8234 1.51 90.0534 1.55833 90.2434 1.655C90.4334 1.74833 90.5751 1.87667 90.6684 2.04C90.7651 2.2 90.8134 2.38 90.8134 2.58C90.8134 2.81 90.7468 3.01833 90.6134 3.205C90.4801 3.38833 90.2818 3.515 90.0184 3.585L90.8534 5H90.0434ZM88.9434 3.115H89.5284C89.7184 3.115 89.8601 3.07 89.9534 2.98C90.0468 2.88667 90.0934 2.75833 90.0934 2.595C90.0934 2.435 90.0468 2.31167 89.9534 2.225C89.8601 2.135 89.7184 2.09 89.5284 2.09H88.9434V3.115Z" fill="white"/>
</svg>
