<svg width="37" height="37" viewBox="0 0 37 37" fill="none" xmlns="http://www.w3.org/2000/svg">
<g id="Quote Right">
<path id="Vector" d="M24.1497 18.4995H29.7954V23.0161C29.7954 25.5073 27.77 27.5327 25.2788 27.5327H24.7143C24.4917 27.5322 24.2712 27.5756 24.0655 27.6606C23.8597 27.7455 23.6728 27.8702 23.5154 28.0276C23.358 28.185 23.2333 28.3719 23.1484 28.5777C23.0634 28.7834 23.02 29.0039 23.0205 29.2265V32.6139C23.02 32.8365 23.0634 33.057 23.1484 33.2627C23.2333 33.4685 23.358 33.6554 23.5154 33.8128C23.6728 33.9702 23.8597 34.0949 24.0655 34.1798C24.2712 34.2648 24.4917 34.3082 24.7143 34.3077H25.2788C31.5174 34.3077 36.5703 29.2547 36.5703 23.0162V6.07886C36.5703 4.2087 35.053 2.69141 33.1829 2.69141H24.1497C22.2795 2.69141 20.7622 4.2087 20.7622 6.07886V15.1121C20.7622 16.9822 22.2795 18.4995 24.1497 18.4995ZM3.82495 18.4995H9.4707V23.0161C9.4707 25.5073 7.44531 27.5327 4.9541 27.5327H4.38956C4.16698 27.5322 3.94649 27.5756 3.74076 27.6606C3.53502 27.7455 3.34809 27.8702 3.1907 28.0276C3.03332 28.185 2.90857 28.3719 2.82364 28.5777C2.73871 28.7834 2.69527 29.0039 2.6958 29.2265V32.6139C2.69527 32.8365 2.73871 33.057 2.82364 33.2627C2.90857 33.4685 3.03332 33.6554 3.1907 33.8128C3.34809 33.9702 3.53502 34.0949 3.74076 34.1798C3.94649 34.2648 4.16698 34.3082 4.38956 34.3077H4.9541C11.1926 34.3077 16.2456 29.2547 16.2456 23.0162V6.07886C16.2456 4.2087 14.7283 2.69141 12.8582 2.69141H3.82495C1.95479 2.69141 0.4375 4.2087 0.4375 6.07886V15.1121C0.4375 16.9822 1.95479 18.4995 3.82495 18.4995Z" fill="#9A0404"/>
</g>
</svg>
