<svg width="16" height="16" viewBox="0 0 16 16" fill="none" xmlns="http://www.w3.org/2000/svg">
<g id="Star" clip-path="url(#clip0_5889_3879)">
<path id="Vector" d="M13.0607 14.9549C12.5525 15.3346 9.29213 12.9274 8.66769 12.9221C8.04325 12.9169 4.74613 15.2687 4.24393 14.8804C3.74172 14.4921 4.92238 10.504 4.73423 9.8811C4.54608 9.25816 1.38929 6.70414 1.58704 6.08444C1.78482 5.46473 5.77491 5.40717 6.28305 5.02743C6.79118 4.64772 8.13733 0.717416 8.76181 0.722661C9.38621 0.727952 10.6715 4.68047 11.1737 5.06875C11.6759 5.45698 15.6647 5.58195 15.8529 6.20489C16.041 6.82783 12.8453 9.32822 12.6475 9.94792C12.4498 10.5676 13.5688 14.5751 13.0607 14.9549Z" fill="#FFC444"/>
</g>
<defs>
<clipPath id="clip0_5889_3879">
<rect width="15.2494" height="16" fill="white" transform="translate(0.625)"/>
</clipPath>
</defs>
</svg>
